<svg xmlns="http://www.w3.org/2000/svg" fill="none" viewBox="0 0 512 512">
  <path fill="#C3C330" d="M440.325 327.35c39.582 0 71.675-32.093 71.675-71.675C512 216.093 479.907 184 440.325 184c-39.582 0-71.675 32.093-71.675 71.675 0 39.582 32.093 71.675 71.675 71.675Z"/>
  <path fill="#DBA728" d="M327.671 255.675c0-39.582-32.093-71.675-71.675-71.675-39.582 0-71.675 32.093-71.675 71.675 0 39.582 32.093 71.675 71.675 71.675 39.582 0 71.675-32.084 71.675-71.675Zm-33.913 0c0 20.855-16.907 37.762-37.762 37.762s-37.762-16.907-37.762-37.762 16.907-37.762 37.762-37.762 37.762 16.907 37.762 37.762Z"/>
  <path fill="#2BABE2" d="M143.35 255.675c0-39.582-32.093-71.675-71.675-71.675C32.093 184 0 216.093 0 255.675c0 39.582 32.093 71.675 71.675 71.675 39.582 0 71.675-32.084 71.675-71.675Zm-16.956 0c0 30.223-24.496 54.719-54.719 54.719-30.223 0-54.718-24.504-54.718-54.719 0-30.214 24.495-54.718 54.718-54.718 30.223 0 54.719 24.495 54.719 54.718Z"/>
</svg>
