<svg xmlns="http://www.w3.org/2000/svg" fill="none" viewBox="0 0 616 300"><path fill="#C3C330" d="M46.35 248.46v-9.24H0v9.24h18.13V299h10.09v-50.54h18.13Zm69.87-4.62c-3.93-3.08-10.46-4.62-19.58-4.62H74.41V299H84.5v-20.1h13.26l14.28 20.1h12.83l-15.65-21.72c8.61-2.57 12.91-8.78 12.91-18.64 0-6.78-1.97-11.72-5.9-14.79l-.01-.01Zm-19.16 25.91H84.49v-21.38h12.83c5.41 0 9.18.73 11.29 2.18 2.11 1.45 3.16 4.13 3.16 8.04 0 3.91-1.03 6.74-3.08 8.51-2.05 1.77-5.93 2.65-11.63 2.65Zm56.7 29.25h10.09v-59.78h-10.09V299Zm56.57-15.27c-4.08-4.07-6.11-9.15-6.11-15.22s2.05-11.06 6.16-14.96c4.1-3.91 9.18-5.86 15.22-5.86 3.42 0 6.4.54 8.94 1.63 2.54 1.08 5.23 2.99 8.08 5.73l6.41-7.01c-6.21-6.84-13.95-10.26-23.22-10.26s-16.93 2.96-23 8.89c-6.07 5.93-9.11 13.34-9.11 22.23s2.98 16.25 8.94 22.06c5.96 5.82 13.45 8.72 22.49 8.72s16.72-3.51 23.05-10.52l-6.5-6.67c-2.74 2.57-5.36 4.43-7.87 5.6s-5.5 1.75-8.98 1.75c-5.59 0-10.42-2.04-14.49-6.11h-.01Zm90.77-8.34 22.23-36.17H312.3l-16.33 27.19-16.33-27.19h-11.03l22.23 36.17v23.6h10.26v-23.6Zm88.76-31.56c-3.93-3.08-10.46-4.62-19.58-4.62h-22.23v59.78h10.09v-20.1h13.25l14.28 20.1h12.83l-15.65-21.72c8.61-2.57 12.91-8.78 12.91-18.64 0-6.78-1.97-11.72-5.9-14.79v-.01Zm-19.15 25.91h-12.57v-21.38h12.83c5.42 0 9.18.73 11.29 2.18 2.11 1.45 3.16 4.13 3.16 8.04 0 3.91-1.03 6.74-3.08 8.51-2.05 1.77-5.93 2.65-11.63 2.65Zm69.48 13.98c-4.08-4.07-6.11-9.15-6.11-15.22s2.05-11.06 6.16-14.96c4.1-3.91 9.18-5.86 15.22-5.86 3.42 0 6.4.54 8.94 1.63 2.54 1.08 5.23 2.99 8.08 5.73l6.41-7.01c-6.21-6.84-13.95-10.26-23.22-10.26s-16.93 2.96-23 8.89c-6.07 5.93-9.11 13.34-9.11 22.23s2.98 16.25 8.94 22.06c5.96 5.82 13.45 8.72 22.49 8.72s16.72-3.51 23.05-10.52l-6.5-6.67c-2.74 2.57-5.36 4.43-7.87 5.6s-5.5 1.75-8.98 1.75c-5.59 0-10.42-2.04-14.5-6.11Zm104.63 15.27v-9.58h-27.28v-50.2h-10.09v59.78h37.37Zm28.13-59.78v59.78h43.02v-9.49h-32.92v-15.99h28.65v-8.98h-28.65v-15.82h31.9v-9.49h-41.99l-.01-.01ZM529.74 172.46c47.62 0 86.23-38.61 86.23-86.23C615.97 38.61 577.36 0 529.74 0c-47.62 0-86.23 38.61-86.23 86.23 0 47.62 38.61 86.23 86.23 86.23Z"/><path fill="#DBA728" d="M394.21 86.23C394.21 38.61 355.6 0 307.98 0c-47.62 0-86.23 38.61-86.23 86.23 0 47.62 38.61 86.23 86.23 86.23 47.62 0 86.23-38.6 86.23-86.23Zm-40.8 0c0 25.09-20.34 45.43-45.43 45.43s-45.43-20.34-45.43-45.43 20.34-45.43 45.43-45.43 45.43 20.34 45.43 45.43Z"/><path fill="#2BABE2" d="M172.46 86.23C172.46 38.61 133.85 0 86.23 0 38.61 0 0 38.61 0 86.23c0 47.62 38.61 86.23 86.23 86.23 47.62 0 86.23-38.6 86.23-86.23Zm-20.4 0c0 36.36-29.47 65.83-65.83 65.83S20.4 122.58 20.4 86.23c0-36.35 29.47-65.83 65.83-65.83s65.83 29.47 65.83 65.83Z"/></svg>