<svg xmlns="http://www.w3.org/2000/svg" fill="none" viewBox="0 0 792 144"><path fill="#C3C330" d="M288.09 55.3v-7.41H250.9v7.41h14.55v40.55h8.1V55.3h14.55-.01Zm56.06-3.71c-3.16-2.47-8.4-3.71-15.71-3.71H310.6v47.96h8.1V79.72h10.64l11.46 16.12h10.29l-12.56-17.43c6.91-2.06 10.36-7.04 10.36-14.96 0-5.44-1.58-9.4-4.73-11.87l-.01.01Zm-15.37 20.79h-10.09V55.23h10.29c4.35 0 7.36.58 9.06 1.75 1.69 1.17 2.54 3.32 2.54 6.45 0 3.13-.82 5.41-2.47 6.83-1.65 1.42-4.76 2.13-9.33 2.13v-.01Zm45.49 23.47h8.1V47.89h-8.1v47.96Zm45.39-12.25c-3.27-3.27-4.91-7.34-4.91-12.21 0-4.87 1.65-8.87 4.94-12.01 3.29-3.13 7.36-4.7 12.21-4.7 2.75 0 5.14.44 7.17 1.3 2.04.87 4.2 2.4 6.48 4.6l5.15-5.63c-4.99-5.49-11.2-8.23-18.63-8.23s-13.59 2.38-18.46 7.14c-4.87 4.76-7.31 10.7-7.31 17.84 0 7.14 2.39 13.04 7.17 17.7 4.78 4.67 10.8 7 18.04 7 7.24 0 13.41-2.81 18.49-8.44l-5.21-5.35c-2.2 2.06-4.3 3.56-6.31 4.49-2.01.94-4.41 1.41-7.2 1.41-4.48 0-8.36-1.63-11.63-4.91h.01Zm72.83-6.69 17.84-29.02h-8.85l-13.1 21.82-13.11-21.82h-8.85l17.84 29.02v18.94h8.23V76.91Zm71.22-25.32c-3.16-2.47-8.39-3.71-15.71-3.71h-17.84v47.96h8.1V79.72h10.64l11.46 16.12h10.29l-12.56-17.43c6.91-2.06 10.36-7.04 10.36-14.96 0-5.44-1.58-9.4-4.73-11.87l-.01.01Zm-15.37 20.79h-10.09V55.23h10.29c4.35 0 7.36.58 9.06 1.75 1.69 1.17 2.54 3.32 2.54 6.45 0 3.13-.82 5.41-2.47 6.83-1.65 1.42-4.76 2.13-9.33 2.13v-.01Zm55.75 11.22c-3.27-3.27-4.91-7.34-4.91-12.21 0-4.87 1.65-8.87 4.94-12.01 3.29-3.13 7.37-4.7 12.21-4.7 2.74 0 5.13.44 7.17 1.3 2.03.87 4.2 2.4 6.48 4.6l5.15-5.63c-4.99-5.49-11.2-8.23-18.63-8.23s-13.58 2.38-18.46 7.14c-4.87 4.76-7.31 10.7-7.31 17.84 0 7.14 2.39 13.04 7.17 17.7 4.78 4.67 10.8 7 18.04 7 7.24 0 13.41-2.81 18.49-8.44l-5.21-5.35c-2.2 2.06-4.3 3.56-6.31 4.49-2.01.94-4.41 1.41-7.2 1.41-4.48 0-8.36-1.63-11.63-4.91h.01Zm83.95 12.25v-7.68h-21.89V47.89h-8.1v47.96H688.04Zm22.57-47.96v47.96h34.51v-7.62H718.7V75.4h22.99v-7.2H718.7V55.51h25.59v-7.62H710.6h.01ZM193.92 95.47c13.12 0 23.76-10.64 23.76-23.76 0-13.12-10.64-23.76-23.76-23.76-13.12 0-23.76 10.64-23.76 23.76 0 13.12 10.64 23.76 23.76 23.76Z"/><path fill="#DBA728" d="M156.58 71.71c0-13.12-10.64-23.76-23.76-23.76-13.12 0-23.76 10.64-23.76 23.76 0 13.12 10.64 23.76 23.76 23.76 13.12 0 23.76-10.64 23.76-23.76Zm-11.24 0c0 6.91-5.6 12.52-12.52 12.52s-12.52-5.6-12.52-12.52 5.6-12.52 12.52-12.52 12.52 5.6 12.52 12.52Z"/><path fill="#2BABE2" d="M95.48 71.71c0-13.12-10.64-23.76-23.76-23.76-13.12 0-23.76 10.64-23.76 23.76 0 13.12 10.64 23.76 23.76 23.76 13.12 0 23.76-10.64 23.76-23.76Zm-5.62 0c0 10.02-8.12 18.14-18.14 18.14-10.02 0-18.14-8.12-18.14-18.14 0-10.02 8.12-18.14 18.14-18.14 10.02 0 18.14 8.12 18.14 18.14Z"/></svg>